/* XPM */
static char *_6fc72e3b25d4400cbf5e9c667e55aee[] = {
/* columns rows colors chars-per-pixel */
"64 64 256 2 ",
"   c #D98F00",
".  c #DC9500",
"X  c #DD9902",
"o  c #DC970C",
"O  c #DE9C0A",
"+  c #DD9E1B",
"@  c #DA9A16",
"#  c #E09500",
"$  c #E19D04",
"%  c #E09E0B",
"&  c #DEA20B",
"*  c #D8AC0D",
"=  c #D9A608",
"-  c #DCAD13",
";  c #DCA81B",
":  c #DDB216",
">  c #DEB41C",
",  c #E2A202",
"<  c #E5AA04",
"1  c #E1A30B",
"2  c #E4AA0E",
"3  c #E9AC04",
"4  c #EAB40D",
"5  c #E8B009",
"6  c #E1A313",
"7  c #E5AC13",
"8  c #E8AB12",
"9  c #E2AC1C",
"0  c #E2A719",
"q  c #E6B215",
"w  c #EAB414",
"e  c #EEBB13",
"r  c #E2B51D",
"t  c #ECB61C",
"y  c #E3BA1D",
"u  c #EBBC1C",
"i  c #F1BE15",
"p  c #DDA726",
"a  c #DEB725",
"s  c #D6A837",
"d  c #DCB236",
"f  c #DABB35",
"g  c #E4AD23",
"h  c #E0A826",
"j  c #E4B523",
"k  c #EAB521",
"l  c #E3BA23",
"z  c #ECB922",
"x  c #E3B32A",
"c  c #E5BD2B",
"v  c #EABB2B",
"b  c #E3BB33",
"n  c #EAB933",
"m  c #EDBE3D",
"M  c #E5B838",
"N  c #EDC21E",
"B  c #EDC116",
"V  c #F1C41B",
"C  c #F3CB1B",
"Z  c #F2C516",
"A  c #F4D11F",
"S  c #E4C123",
"D  c #EDC422",
"F  c #E6C02E",
"G  c #E9C32B",
"H  c #EECA28",
"J  c #ECC926",
"K  c #F2C325",
"L  c #F3CC24",
"P  c #F3C22A",
"I  c #F3CD2A",
"U  c #F9CB27",
"Y  c #F4D224",
"T  c #FADA26",
"R  c #F5D42C",
"E  c #F7D92E",
"W  c #F9DA2D",
"Q  c #F9D628",
"!  c #EAC434",
"~  c #EBC53A",
"^  c #ECC93C",
"/  c #E8C735",
"(  c #F9CD33",
")  c #F4CB3A",
"_  c #F5CC37",
"`  c #F6D631",
"'  c #FDD332",
"]  c #F6D933",
"[  c #F9DD33",
"{  c #F5D33B",
"}  c #FDD53B",
"|  c #F7DC39",
" . c #F9DD3E",
".. c #EDD026",
"X. c #FDE32D",
"o. c #FCE234",
"O. c #FFEA34",
"+. c #FCE439",
"@. c #FEEA3C",
"#. c #BEAF7A",
"$. c #BEB17F",
"%. c #DAAB4B",
"&. c #D7AC49",
"*. c #D3BA4A",
"=. c #DDBA4D",
"-. c #D6B646",
";. c #D8AE59",
":. c #CCB454",
">. c #CBB358",
",. c #D1B45B",
"<. c #D5B954",
"1. c #CAA044",
"2. c #E2AC40",
"3. c #E1BD4E",
"4. c #E1B548",
"5. c #E4B75B",
"6. c #DABA65",
"7. c #C0AB78",
"8. c #C1B27A",
"9. c #E4BC69",
"0. c #DCC140",
"q. c #DEC052",
"w. c #EEC743",
"e. c #EDCB43",
"r. c #EAC34C",
"t. c #EFCD4B",
"y. c #E3C34A",
"u. c #F0C649",
"i. c #F1CB47",
"p. c #EED04B",
"a. c #F6DA42",
"s. c #F3D14C",
"d. c #F5D848",
"f. c #EDC455",
"g. c #E2C35B",
"h. c #EAC858",
"j. c #F4D453",
"k. c #F3D45A",
"l. c #F5D95B",
"z. c #F9DB58",
"x. c #FBE344",
"c. c #FEEB41",
"v. c #DCC775",
"b. c #DDC265",
"n. c #E4C662",
"m. c #EACA65",
"M. c #E3CA6C",
"N. c #ECCD6C",
"B. c #E7C962",
"V. c #F7DA62",
"C. c #FADE64",
"Z. c #FADE6C",
"A. c #F3D565",
"S. c #E7CE76",
"D. c #EDCF70",
"F. c #E4CC78",
"G. c #EDD274",
"H. c #EAD27B",
"J. c #E0D572",
"K. c #F2D475",
"L. c #F1D77A",
"P. c #F4D87C",
"I. c #F1D976",
"U. c #EFD364",
"Y. c #FBE16B",
"T. c #FDE473",
"R. c #FEE579",
"E. c #BCB193",
"W. c #BAB299",
"Q. c #BCAF87",
"!. c #BBB9B8",
"~. c #B7B4AF",
"^. c #C3B58B",
"/. c #CABB83",
"(. c #C3BA9B",
"). c #D2BE86",
"_. c #C4BEA3",
"`. c #D4C48D",
"'. c #CBC39D",
"]. c #D3C493",
"[. c #DDCA99",
"{. c #EBD584",
"}. c #E6D288",
"|. c #F3DC87",
" X c #E5CC9C",
".X c #ECDC9C",
"XX c #E7D599",
"oX c #FBE98E",
"OX c #CCC4AA",
"+X c #DDCEA8",
"@X c #DDD2A2",
"#X c #D6CEB9",
"$X c #DBD2B3",
"%X c #E6D6A5",
"&X c #E4D9B6",
"*X c #F5E7A6",
"=X c #ECE2B5",
"-X c #F2E8B8",
";X c #BBBCC5",
":X c #BFC1CB",
">X c #C1C3CE",
",X c #C9C7C4",
"<X c #DAD8CC",
"1X c #C6C9D5",
"2X c #CBCFDA",
"3X c #C5C9D5",
"4X c #CED1DC",
"5X c #DBDAD4",
"6X c #DDDEDD",
"7X c #D4D5DA",
"8X c #E7DAC2",
"9X c #E0DFDC",
"0X c #DFE0DE",
"qX c #EBE3C3",
"wX c #E4E2CB",
"eX c #EBE2CA",
"rX c #F1EBCC",
"tX c #F4EAC0",
"yX c #E2E1DE",
"uX c #E6E3D3",
"iX c #F6F2D3",
"pX c #F6F1D1",
"aX c #D3D5E1",
"sX c #D6D9E4",
"dX c #DBDEE4",
"fX c #DCDFE9",
"gX c #DFE0E1",
"hX c #DEE2EB",
"jX c #DFE4F0",
"kX c #E3E4E4",
"lX c #E8E7E5",
"zX c #E7E8E6",
"xX c #EAE9E6",
"cX c #E1E5EC",
"vX c #E6E8EA",
"bX c #EBECEC",
"nX c #F0EFEE",
"mX c #EFF0EF",
"MX c #FAF9E6",
"NX c #F1F1EE",
"BX c #FAF9EB",
"VX c #E2E6F2",
"CX c #E5EAF4",
"ZX c #EBEDF4",
"AX c #EBEEFA",
"SX c #E7EDF9",
"DX c #EFF0F1",
"FX c #EDF1FB",
"GX c #F4F4F4",
"HX c #F8F7F5",
"JX c #F7F9F6",
"KX c #F9F9F6",
"LX c #F3F5FB",
"PX c #F6F8FA",
"IX c #FBFBFB",
"UX c None",
/* pixels */
"UXUXUXUXUXUXUXUXUXUXUXUXUXUXUXUXUXUXUXUXUXUXUXUXUXUX* : > > a l l > > > ; : UXUXUXUXUXUXUXUXUXUXUXUXUXUXUXUXUXUXUXUXUXUXUXUXUXUX",
"UXUXUXUXUXUXUXUXUXUXUXUXUXUXUXUXUXUXUXUXUXUX- j c F ! ^ { { {  .x.x.x.x.a.e.^ / b a UXUXUXUXUXUXUXUXUXUXUXUXUXUXUXUXUXUXUXUXUXUX",
"UXUXUXUXUXUXUXUXUXUXUXUXUXUXUXUXUXUXUXUX> c v c z t u B V D Y Y E [ O.@.@.@.+.+.a.) ^ / UXUXUXUXUXUXUXUXUXUXUXUXUXUXUXUXUXUXUXUX",
"UXUXUXUXUXUXUXUXUXUXUXUXUXUXUXUXUX* l c x 6 X $ & 2 q u z D H I R ` | +.@.+.+.o.[ [ | { i.e.~ UXUXUXUXUXUXUXUXUXUXUXUXUXUXUXUXUX",
"UXUXUXUXUXUXUXUXUXUXUXUXUXUXUXUXj c j & . . . X & 2 7 4 e e Z C A Y T X.o.@.c.+.+.[ E R R { p.i.UXUXUXUXUXUXUXUXUXUXUXUXUXUXUXUX",
"UXUXUXUXUXUXUXUXUXUXUXUXUXUX: c c 2 1 $ = O X X X $ 2 ; s -.:.>.>.:.*.0./ E X.O.O.@.[ [ E Y R { j.p.UXUXUXUXUXUXUXUXUXUXUXUXUXUX",
"UXUXUXUXUXUXUXUXUXUXUXUXUX> ! u 7 7 2 2 & X $ @ 1.#.E.!.:X:X1X1X1X3X:X:X~.W.#.q./ X.O.+.' R E L I d.k.UXUXUXUXUXUXUXUXUXUXUXUXUX",
"UXUXUXUXUXUXUXUXUXUXUX* c _ u w q q q < 1 s 8.!.1XsXhXzXzXxXbXxXxXzXzXzXkXsX2X:X~.#.*.R X.o.E R R D { l.l.UXUXUXUXUXUXUXUXUXUXUX",
"UXUXUXUXUXUXUXUXUXUX* F ( V N u u w 4 &.E.>XsXvXnXnXbXbXbXvXvXlXzXhXkXkXkXkXkXkX6X2X;XE.*.Y X.[ E I L I l.C.UXUXUXUXUXUXUXUXUXUX",
"UXUXUXUXUXUXUXUXUX* ! ` D D D D i b ^.>XhXNXGXmXnXbXbXbXxXvXvXlXzXzXkXzXkXgX0X0X0XkX0X4X;XQ.f T [ R R L I z.Z.UXUXUXUXUXUXUXUXUX",
"UXUXUXUXUXUXUXUX* ! | I I I D C ,.!.sXDXGXNXmXmXbXnXbXbXbXvXvXlXzXzXkXkXgXkXkXgX6X6X6X0X6X2X!.>.L [ R Q L L V.T.UXUXUXUXUXUXUXUX",
"UXUXUXUXUXUXUX* F +.W E R Y I /.3XbXHXGXNXDXmXmXnXbXbXbXbXxXvXlXkXkXzXkXkXkX0X0X0X6X6X6X6XkX7X:X#.D [ ` R I Y C.R.UXUXUXUXUXUXUX",
"UXUXUXUXUXUXUXc x.o.[ ] E ` (.2XHXHXDXGXDXGXDXnXZXbXbXbXvXbXSXCXCXvXkXkXkXgXgXgX6X6X6X6X6X6X0XyX2XE.S X.R R Y I T.UXUXUXUXUXUXUX",
"UXUXUXUXUXUX> x.@.+.o.o.| _.aXKXGXGXGXGXGXGXDXnXnXnXZXbXZXeXn.n.g.%XvXgXkXgXgX6X6X6X6X6X6XgX6XkXyX4XW.S o.` R I { R.UXUXUXUXUXUX",
"UXUXUXUXUX* ` @.@.@.@.O.'.aXIXGXGXGXGXGXNXNXNXNXnXnXbXxXAXF.e U Y M kXkXgXgXgX0X6X6X6X6XgX0XgXgXkXkX4XE.D o.E R L d.R.UXUXUXUXUX",
"UXUXUXUXUXF +.[ +.@.O.].4XIXPXJXPXGXPXGXPXPXFXPXFXLXFXDXFX}.P ( } 0.CXVXkX0X0X6X6X6X6XdXgXkXkXkXkXkXzX2X#.A +.' E Q C.UXUXUXUXUX",
"UXUXUXUX> ` E [ [ O.J.3XJXPXKXKXGXPXGXPX-Xq.3.3.3.3.=.3.3.b P ( } c v.@XwXcXhXsX6X0X0XgXgX0XkXkXkXkXzXkX1X:.T o.[ R { Z.UXUXUXUX",
"UXUXUX* G Q R ` X.d.,XDXIXPXIXPXPXHXHXPXg.    .   .   # , w K ( } ( e q : *.@XfXgX0X0XgXkXhXkXkXkXkXzXxXyX;Xf O.[ [ E z.Z.UXUXUX",
"UXUXUXr I L I R W '.cXIXIXIXPXKXPXKXPXGXB.o # X X # $ % 8 t P ( } ( P z 7 X X d $XjX0X0XkXzXkXkXkXvXzXvXbXsX^...+.o.W | C.UXUXUX",
"UXUXUXl K K L A h.2XIXIXIXIXIXIXIXKXHXPXB.. X X X X X $ 8 t K ( } ( P t 7 6 .   X v.vXgXkXgXkXzXlXkXzXvXvXkX3X-.O.+.o.W z.UXUXUX",
"UXUX: z B K D L OXZXIXIXIXIXIXIXIXHXHXKXm.. X # X X # $ 8 t K ( } ( P u 8 1 X . . . *.kXzXkXzXkXvXvXvXbXxXbXkX(...@.+.o. .V.UXUX",
"UXUXy u u u Z y.4XIXIXIXIXIXIXIXIXIXIXKXN.# X X X X X $ 8 t K ( } ( P t 7 1 . . . X . *.cXzXzXvXxXvXvXxXbXvXnX1X*.O.@.@.o.z.UXUX",
"UX: t q w u Z `.CXIXIXIXIXIXIXIXIXIXIXIXN.. . X X # # $ 8 t P ( } ( P k 7 & . . . . X   b.CXzXvXvXbXvXbXbXbXnXfX^.Y @.@.+.x.l.UX",
"UXy q 2 w w v ,XIXIXIXIXIXIXIXIXIXIXIXIXK.. X . X # $ $ 8 t P ( } } P t 9 = . . . . . X X %XZXzXbXbXbXbXbXbXbXbX,XF o.+.@.x.k.UX",
"UXr 2 2 8 5 3.sXIXIXIXIXIXIXIXIXIXIXIXIXK.. . X . X # $ q B.M.B.h.r.^ P 8 1 . . . . . X . a zXZXbXbXbXbXnXbXbXNX4X*.Y o.+.@.j.UX",
"UXr , 1 2 3 ).CXIXIXIXIXIXIXIXIXIXIXIXIXP.. X . X # X $ 2 qXAXvXkX<X[.q.n % . . . X . X .   }.FXbXbXnXnXZXDXbXNXhX/.C [ [ +.d.UX",
"c 7 $ 1 1 2 OXFXIXIXIXIXIXPXIXIXIXIXIXIXP.. X o X # X $ 2 qXZXxXkXkXhX5XM.d . . . . . . . . f ZXnXbXbXDXNXNXnXNXZXOXN R ` o.x.p.",
"c 6 # $ , + <XPXKXPXPXPXIXPXIXIXIXIXIXIXP.. X # X X $ $ 7 eXDXlXkXgX6XkXkXM.p   X . . X . . . wXFXNXNXDXNXDXnXGXZX,Xa I R R a.p.",
"c O . # $ s 7XHXHXHXPXHXPXPXPXPXIXIXPXIX|.%   . . . # # 8 pXFXxXkX6XgXkXVXuX4.o . . . . . X . }.PXNXDXDXDXDXGXDXDX4Xd C H R ` t.",
"F X X X # %.fXHXHXGXHXHXHXHXHXPXPXPXHXIXpXK.f.f.f.3.3.u.L.PXDXvXgX0XkXzXxXDXH.+ . . . X . X . 5.PXDXGXGXGXGXGXGXGXsX*.B D L I e.",
"c $ X $ # ;.hXHXGXPXGXPXHXPXGXHXHXKXHXPXIXBXBXBXBXBXMXBXIXIXHXbX6XkXbXbXmXFX=X; . . . . . X . 4.PXGXGXDXGXGXGXGXKXhX,.4 D K I e.",
"c X X X # ;.jXGXGXGXGXGXGXGXGXGXGXGXGXGXGXHXGXLXHXPXPXPXHXHXIXDXvXDXDXDXGXLXrXh . X . . . X X d GXGXHXGXGXGXGXGXHXhX,.3 y u D ^ ",
"c X X $ . ;.VXHXGXGXGXGXGXGXGXGXGXGXGXGXDXnXGXnXNXNXNXNXnXnXbXkXKXIXIXPXKXIXpXh . . . X . X . d JXJXGXJXGXHXPXGXHXVX,.< w w u ^ ",
"~ o X # # ;.hXGXnXGXGXNXNXNXFXGXnXGXDXnXFXLXLXLXLXLXAXAXZXlXgXkXNXPXIXIXIXIX-X9 . . . . . X . -.IXJXGXPXHXHXHXPXHXcX:., q q y / ",
"~ $ # o . %.hXNXFXNXNXNXNXNXGXnXFXnXnXnXiX|.D.D.G.G.G.D.=XhX6XkXbXDXKXIXIXIX|.O . X . X X X . g.IXKXPXPXHXPXPXKXPXhX&.X 2 2 q ~ ",
"e.O   . # s dXnXNXNXFXnXGXnXZXnXnXnXnXZXP.. .   . X . X k wXgXkXbXDXGXGXIXBX4.  . . . . . X . }.IXKXPXKXKXIXPXPXKXdXs . O & q ! ",
"t.0 . X . + 5XnXnXnXnXZXZXnXnXnXbXbXbXDXK.o . o X # o $ k wXfXlXvXbXDXDXIXL.X . . . . X X X X tXIXIXIXIXIXIXIXIXJX7X; . X X - / ",
"l.g   X X # #XZXnXnXnXnXnXbXbXbXbXbXbXbXK.. . X . X X $ t wXgXkXxXZXLXGX|.2 . . . . . . X . b IXIXIXIXIXIXIXIXIXLX#XX X . . 9 ~ ",
"UXn . X X   `.CXnXnXbXbXbXbXbXbXbXbXvXbXN.. . . X X # $ k uXVXbXbXxX-Xk.7 O X . . . . . X   |.IXIXIXIXIXIXIXIXIXFX`.X & X . 9 UX",
"UXu.. . # # ;.cXnXZXbXbXbXbXbXbXvXvXxXvXK.. X X . X X $ g G.L.K.Z.s.P w 9 = . . . . X X   x BXIXIXIXIXIXIXIXIXIXCX:., & & . c UX",
"UXk.% X X . + 5XbXbXbXbXbXvXbXvXvXxXlXvXD.X . X X X X $ 8 w i U ' ( P k 8 1 X . . . . . X *XIXIXIXIXIXIXIXIXIXIX5X; < & & & c UX",
"UXY.x . X X # [.CXbXxXbXbXlXxXvXvXxXvXkXN.X   X X X # $ 8 t P ( } ( P t 9 % X   . . . . L.IXIXIXIXIXIXIXIXIXIXLX].< q 2 1 q F UX",
"UXUXu.  # o   %.cXxXvXbXvXlXvXvXlXkXkXvXN.. X X X # # $ 8 t z ( } ( P t 8 % . . X   . U.PXIXHXIXIXIXIXIXIXIXIXcX=.4 q q 2 j UXUX",
"UXUXZ.6 . . # # $XVXxXvXlXvXlXlXkXkXkXzXm.. X X X X X $ 8 t K ( } ( P k 8 6 . .   & I.JXHXHXHXIXIXIXIXIXIXIXLX$Xy u w q q l UXUX",
"UXUXUX~   X X   %.VXlXlXkXvXlXlXlXkXkXkXn.o # X o # X $ 8 t z ( } ( P t 8 %     n *XJXGXKXGXPXPXPXIXIXIXIXIXcXq.B N u q l UXUXUX",
"UXUXUXY.O X X X . +XCXlXvXkXlXkXkXkXgXkXn.. . . . # X $ 8 t K ( } ( K w 8 6 n |.iXLXGXGXGXPXHXHXIXPXPXHXIXFX+XB D N u u l UXUXUX",
"UXUXUXoXm   X X   p kXvXkXkXkXkXkXgXkX9XB.@ O $ o $ % % 8 z P ( } { ) w.A.oXpXGXFXNXGXGXGXGXPXPXHXPXKXIXPX6X/ L H D D z l UXUXUX",
"UXUXUXUXZ.%   . X   9.CXkXkXkXkXkXgXgXgX&XS.F.H.H.H.L.{.{.P.) ( ' k.-XrXxXNXZXnXNXDXGXGXGXHXGXHXHXHXHXHXCXM.Y R I L D l UXUXUXUX",
"UXUXUXUXUXu.  X X X . [.CXgXkXgXgXgXgXyXgXdXdXdX6XgXcXgXVX.XP ( ' h.ZXZXbXbXbXNXNXGXNXGXGXGXHXGXHXHXKXSX[.T [ R ..R S UXUXUXUXUX",
"UXUXUXUXUXR.g   X X . o &XVXyXkXgXgXgXyX6X6X6X6X6X9X9XkXcXXX_ } } U.bXbXbXbXmXDXNXDXDXGXGXGXGXGXGXHXFX&XE o.[ E ` J > UXUXUXUXUX",
"UXUXUXUXUXUXV.%   X X . @ 8XbX6XgXgX6X6X6X6X6XdX6XgXgXkXkXuX.X.X.XeXbXvXbXbXDXbXnXDXGXDXDXGXGXGXGXSX&X .@.+.o.[ R y UXUXUXUXUXUX",
"UXUXUXUXUXUXUXi.. . . X # @ &XSX9X6XgX6X6X6X6X6XgXgXgXkXkXkXVXVXCXbXvXbXbXbXbXNXbXNXDXDXGXGXGXGXFX&X| @.@.@.+.+.S UXUXUXUXUXUXUX",
"UXUXUXUXUXUXUXT.m   X . . . o  XSXdX6X6X6X6X9XdX9XkXyXkXkXkXkXxXzXxXvXvXbXbXbXbXDXDXDXDXDXGXGXSX%XE X.+.+.@.c.J - UXUXUXUXUXUXUX",
"UXUXUXUXUXUXUXUXZ.n   X   # o . 9.bXVX5X6X6X6X6XdXgXdXkXkXkXkXxXvXvXxXbXvXbXbXnXnXnXNXNXnXAXlXG.A E ' [ o.@.H : UXUXUXUXUXUXUXUX",
"UXUXUXUXUXUXUXUXUXV.n . . . X X   p &XZXcX6X6X6XyXkXkXkXkXkXvXkXzXvXvXvXbXbXbXnXnXbXbXFXAX=X^ C I R E E [ J - UXUXUXUXUXUXUXUXUX",
"UXUXUXUXUXUXUXUXUXUXV.n   . X . X .   5.&XZXCXkX9X9X9XkXkXkXkXvXvXxXbXxXxXbXxXbXZXFXDXqXh.e B L D Y R E D - UXUXUXUXUXUXUXUXUXUX",
"UXUXUXUXUXUXUXUXUXUXUXl.w.O   . X X . . . %.%XvXAXAXcXlXkXkXkXlXkXlXvXvXbXZXFXFXxX%X3.4 4 i u V K L I y - UXUXUXUXUXUXUXUXUXUXUX",
"UXUXUXUXUXUXUXUXUXUXUXUXUXi.0   . . X X X . . + 5. XeXbXZXDXAXFXFXAXFXnXxXeX X5.9 , 3 8 w t u u V N : UXUXUXUXUXUXUXUXUXUXUXUXUX",
"UXUXUXUXUXUXUXUXUXUXUXUXUXUXs.b X   . . . X X .   # . + 2.5.9.9.M.9.5.2.p $ # # $ 1 2 2 8 w w w r : UXUXUXUXUXUXUXUXUXUXUXUXUXUX",
"UXUXUXUXUXUXUXUXUXUXUXUXUXUXUXUXe.g X . . . . X # o X . .         #   # # X # $ $ , 1 1 2 2 q q UXUXUXUXUXUXUXUXUXUXUXUXUXUXUXUX",
"UXUXUXUXUXUXUXUXUXUXUXUXUXUXUXUXUXp.~ g O   . X X X X X X X o X o X X X X X X # X $ $ , 7 : : UXUXUXUXUXUXUXUXUXUXUXUXUXUXUXUXUX",
"UXUXUXUXUXUXUXUXUXUXUXUXUXUXUXUXUXUXUXUX~ x 7 O X     . . X X X X X X X . # . X X & - : UXUXUXUXUXUXUXUXUXUXUXUXUXUXUXUXUXUXUXUX",
"UXUXUXUXUXUXUXUXUXUXUXUXUXUXUXUXUXUXUXUXUXUX^ F j 9 2 & O X X . X X X O & & 2 - > > UXUXUXUXUXUXUXUXUXUXUXUXUXUXUXUXUXUXUXUXUXUX",
"UXUXUXUXUXUXUXUXUXUXUXUXUXUXUXUXUXUXUXUXUXUXUXUXUXUX/ b l l j r r r > r > l UXUXUXUXUXUXUXUXUXUXUXUXUXUXUXUXUXUXUXUXUXUXUXUXUXUX"
};
