/* XPM */
static char *_f0276a8336a490dd3c7cea7113eabfa[] = {
/* columns rows colors chars-per-pixel */
"16 16 204 2 ",
"   c #D78900",
".  c #DA8B00",
"X  c #DB8C00",
"o  c #D98F00",
"O  c #DC8E00",
"+  c #DA9000",
"@  c #DD9100",
"#  c #DC9200",
"$  c #DD9200",
"%  c #DF9500",
"&  c #DD9700",
"*  c #DD9800",
"=  c #DE9800",
"-  c #DE9A00",
";  c #DE9A01",
":  c #DE9D00",
">  c #DC980D",
",  c #DD980E",
"<  c #DB9E1F",
"1  c #E29F04",
"2  c #E09B0B",
"3  c #DEA103",
"4  c #DDA01E",
"5  c #E2A300",
"6  c #E3AB07",
"7  c #E4AB07",
"8  c #E0A40C",
"9  c #E4AE0E",
"0  c #E7B30C",
"q  c #E7B50F",
"w  c #E9B409",
"e  c #E3AB10",
"r  c #E5AB1F",
"t  c #ECBF14",
"y  c #E8BE1A",
"u  c #D7A021",
"i  c #DFA227",
"p  c #DFA425",
"a  c #DFA329",
"s  c #DDA02A",
"d  c #DEA92A",
"f  c #E0A524",
"g  c #E0A425",
"h  c #E0A426",
"j  c #E1A627",
"k  c #E4AF21",
"l  c #E7AE22",
"z  c #E2A42A",
"x  c #E0A62B",
"c  c #E3AD2B",
"v  c #E4AE2C",
"b  c #E8BB20",
"n  c #E2B42D",
"m  c #F1BF23",
"M  c #F2BE25",
"N  c #F1BE26",
"B  c #E9B633",
"V  c #E7BE32",
"C  c #EEC419",
"Z  c #EFC51A",
"A  c #F2CC1D",
"S  c #ECC523",
"D  c #ECC724",
"F  c #EFCB28",
"G  c #EFCF2D",
"H  c #F7C623",
"J  c #F7C827",
"K  c #F3C22B",
"L  c #F1CF2A",
"P  c #F7D327",
"I  c #F6D727",
"U  c #F3D52A",
"Y  c #F2D12D",
"T  c #F5D12F",
"R  c #F5D42E",
"E  c #F9DB2A",
"W  c #F9DB2C",
"Q  c #FADC2E",
"!  c #F3C835",
"~  c #F7DD34",
"^  c #F7DF36",
"/  c #DCB85F",
"(  c #E1B043",
")  c #E0B248",
"_  c #E1B85E",
"`  c #E8BE5E",
"'  c #D8B760",
"]  c #DFB664",
"[  c #DFBB65",
"{  c #E1B967",
"}  c #E2BF65",
"|  c #E4BB6A",
" . c #F6CE40",
".. c #EDD644",
"X. c #EFDA47",
"o. c #F5D241",
"O. c #F9D642",
"+. c #FBDC51",
"@. c #FEE343",
"#. c #EACA79",
"$. c #E6D273",
"%. c #E4D774",
"&. c #DDCA84",
"*. c #DDC889",
"=. c #DACD89",
"-. c #DED189",
";. c #DED38E",
":. c #E1C489",
">. c #E2C58A",
",. c #E3C68A",
"<. c #E0C38C",
"1. c #E5C78C",
"2. c #E2C98A",
"3. c #E3D08D",
"4. c #EBD78E",
"5. c #E6D296",
"6. c #E8D291",
"7. c #EDDD99",
"8. c #EEDC9B",
"9. c #EBDA9D",
"0. c #F0D697",
"q. c #EAE09A",
"w. c #D7D0AE",
"e. c #E8D6A6",
"r. c #E6D8A3",
"t. c #EDD8A6",
"y. c #F2DEA9",
"u. c #E2D3B7",
"i. c #E4DBB8",
"p. c #E5DFBB",
"a. c #EEDEB8",
"s. c #F1DFB3",
"d. c #EDE1B5",
"f. c #DDD9CB",
"g. c #D5D5D9",
"h. c #DDDEDA",
"j. c #F0E7C2",
"k. c #F1EDC8",
"l. c #E5E0D0",
"z. c #E2E1D8",
"x. c #E6E4DB",
"c. c #F0ECDD",
"v. c #F7F1DC",
"b. c #DDDEE9",
"n. c #DFE1E2",
"m. c #DFE2E5",
"M. c #DDE0F0",
"N. c #E6E7E2",
"B. c #E2E1E5",
"V. c #E0E2E6",
"C. c #E4E7E7",
"Z. c #E6E8EC",
"A. c #E8E9EA",
"S. c #ECEBEA",
"D. c #ECEDE8",
"F. c #E8EAEC",
"G. c #ECEDEE",
"H. c #F3EFE2",
"J. c #F1F1EA",
"K. c #F3F3ED",
"L. c #F1F0EE",
"P. c #F6F5EC",
"I. c #F8F7EF",
"U. c #E0E7F6",
"Y. c #E3E6F6",
"T. c #E0E8F5",
"R. c #E2E8F4",
"E. c #ECEEF1",
"W. c #E3E7F8",
"Q. c #E4EDFC",
"!. c #E6EDFC",
"~. c #E7EEFF",
"^. c #E7EFFF",
"/. c #ECEEFA",
"(. c #EFF0F2",
"). c #ECF2FB",
"_. c #EFF4F8",
"`. c #E8F0FC",
"'. c #EAF0FD",
"]. c #EDF3FF",
"[. c #EEF4FF",
"{. c #F1F2F2",
"}. c #F1F2F3",
"|. c #F6F5F3",
" X c #F2F3F4",
".X c #F6F7F5",
"XX c #FAFAF4",
"oX c #F3F6FF",
"OX c #F7F8F9",
"+X c #F3F9FF",
"@X c #F4F8FF",
"#X c #F6FDFF",
"$X c #F7FDFF",
"%X c #F8F9F8",
"&X c #FBFBF9",
"*X c #FEFDF8",
"=X c #F8FAFF",
"-X c #F8FBFF",
";X c #F9FEFF",
":X c #F9FFFF",
">X c #FCFFFF",
",X c #FEFFFF",
"<X c gray100",
"1X c None",
/* pixels */
"1X1X1X1X1Xe 0 Z I E T 1X1X1X1X1X",
"1X1X1Xb 7 u ' &.3.%...I o.1X1X1X",
"1X1XF S *.Z./.~.Y.b.g.=.L O.1X1X",
"1XG ^ p.@XK.G.4.r.M.V.M.w.Y +.1X",
"1XA q.-XI.( < S ! / f.C.Y.;.Q 1X",
"q V  X<XXXj # N J % < l.E.B.X.@.",
"5 } :X&X*Xz . 6.i.d X _ _./.$.Q ",
"= >.$X|.&Xs.0.c.^.e.+ p J.@X3.C ",
"= >.oXL.{.a.t.x.$Xy.X p P.:X2.7 ",
"5 ] [.S.D.h O 5.j.c   ` <X:X[ : ",
"l s A.A.N.h # N H + j v.<X.Xn 9 ",
"1X2 <.^.z.) a K  .#.H.OX@X7.t 1X",
"1XB , u.T.h.m.9.d.[. XoXk.~ D 1X",
"1X1Xk , <.m.T.^.`.).E.8.R U 1X1X",
"1X1X1Xk = a { >.1.| v w y 1X1X1X",
"1X1X1X1X1X8 : * % = 5 1X1X1X1X1X"
};
