/* XPM */
static char *_91669cacc594795dd83c4f307848853[] = {
/* columns rows colors chars-per-pixel */
"32 32 227 2 ",
"   c #DA8E00",
".  c #DC9301",
"X  c #DD9A04",
"o  c #D79B0F",
"O  c #DD9C0D",
"+  c #DE9E12",
"@  c #DD9D1A",
"#  c #E09B02",
"$  c #DFA00E",
"%  c #DFA80E",
"&  c #DDA512",
"*  c #DEAA14",
"=  c #DFA01C",
"-  c #DFB014",
";  c #E3A403",
":  c #E5AA05",
">  c #E4A60D",
",  c #E4A80E",
"<  c #EAAC0D",
"1  c #EBB307",
"2  c #EBB309",
"3  c #E3A711",
"4  c #E2AA14",
"5  c #EAAE14",
"6  c #E1A418",
"7  c #E2AC1B",
"8  c #EAAF19",
"9  c #E3B516",
"0  c #E8B111",
"q  c #EEBF12",
"w  c #E4B41A",
"e  c #E5BA1D",
"r  c #ECBC1C",
"t  c #F1BB1B",
"y  c #D6A329",
"u  c #DBA32A",
"i  c #DFA928",
"p  c #DBB22D",
"a  c #DCA433",
"s  c #DFAC33",
"d  c #D9AF38",
"f  c #DFBA35",
"g  c #DBB53C",
"h  c #DBBA3C",
"j  c #E6AD23",
"k  c #E4AC2B",
"l  c #E3B522",
"z  c #E4BA24",
"x  c #E9BE23",
"c  c #E4B62E",
"v  c #E8B52F",
"b  c #E6BE28",
"n  c #EFBD29",
"m  c #F0BE29",
"M  c #E1A732",
"N  c #E3AE33",
"B  c #E6B136",
"V  c #E9B532",
"C  c #E7BB30",
"Z  c #E9BB33",
"A  c #E4B33D",
"S  c #F2C216",
"D  c #F1C31C",
"F  c #F7D11C",
"G  c #EDC523",
"H  c #EECA26",
"J  c #E7C229",
"K  c #EAC42A",
"L  c #EFCC2A",
"P  c #F4C726",
"I  c #F4CD22",
"U  c #F5CB2D",
"Y  c #FBCD2D",
"T  c #F5D221",
"R  c #F8D224",
"E  c #FCDA26",
"W  c #F2D22D",
"Q  c #F9D62A",
"!  c #FBDC2B",
"~  c #E8C230",
"^  c #EDCB33",
"/  c #E4C23A",
"(  c #ECC53F",
")  c #E3C93D",
"_  c #EDC93E",
"`  c #F6CB33",
"'  c #F8CA32",
"]  c #F1CE3B",
"[  c #ECD337",
"{  c #EBD43A",
"}  c #F4D533",
"|  c #FCD134",
" . c #F6DA34",
".. c #FBDD30",
"X. c #F4D339",
"o. c #FBD339",
"O. c #F7DC38",
"+. c #F9DC39",
"@. c #FEE42C",
"#. c #FFE82C",
"$. c #FFEB35",
"%. c #FCE43C",
"&. c #FFEA3E",
"*. c #DFAA40",
"=. c #CDA855",
"-. c #E1AC40",
";. c #E4B442",
":. c #E8B644",
">. c #E8B845",
",. c #E3B749",
"<. c #E5BA4C",
"1. c #DDB667",
"2. c #DDBC63",
"3. c #D0B76B",
"4. c #DFBD7B",
"5. c #E4BC6E",
"6. c #DEC344",
"7. c #EEC241",
"8. c #E5CE4D",
"9. c #EEDC4C",
"0. c #F4D645",
"q. c #F9D341",
"w. c #F3D34C",
"e. c #F3D84C",
"r. c #F8DB49",
"t. c #E4C153",
"y. c #ECC450",
"u. c #E8C65C",
"i. c #F0CD5A",
"p. c #F5D455",
"a. c #F8D953",
"s. c #F4D159",
"d. c #F2DF5B",
"f. c #F8DB5B",
"g. c #FBE445",
"h. c #D6C768",
"j. c #DCC269",
"k. c #D3C273",
"l. c #DECE7D",
"z. c #E6C367",
"x. c #E7C46F",
"c. c #E8C86C",
"v. c #F6D660",
"b. c #FBDE61",
"n. c #E3C570",
"m. c #E6C975",
"M. c #EDCE77",
"N. c #E3C47C",
"B. c #E2CC7E",
"V. c #EBCD7A",
"C. c #F1D37D",
"Z. c #FCE06D",
"A. c #CCBC98",
"S. c #DCC686",
"D. c #DEC985",
"F. c #CCC49B",
"G. c #E0C781",
"H. c #EDD383",
"J. c #EFD689",
"K. c #E5D496",
"L. c #E4D49F",
"P. c #F0DB97",
"I. c #C7C1AA",
"U. c #CCC5AF",
"Y. c #D6CBA4",
"T. c #DFCEAC",
"R. c #DDD0A8",
"E. c #CDC9BD",
"W. c #D1CBB4",
"Q. c #D9D7BE",
"!. c #E6D7A3",
"~. c #E0D3AE",
"^. c #E6D5B3",
"/. c #E5DCB5",
"(. c #E9DCB4",
"). c #F0E0A0",
"_. c #F1E1AB",
"`. c #EAE1BC",
"'. c #C9C6C0",
"]. c #CBC9C9",
"[. c #D1CDC2",
"{. c #D4D2CB",
"}. c #DCDACE",
"|. c #D4D4D4",
" X c #D4D5DB",
".X c #D6D8DD",
"XX c #DDDDDC",
"oX c #E3D9C7",
"OX c #E3DFD4",
"+X c #E0DFD9",
"@X c #DFE0DF",
"#X c #E6E0C2",
"$X c #E7E1CA",
"%X c #EBE5CD",
"&X c #E9E4D1",
"*X c #E2E1DC",
"=X c #EBE5DC",
"-X c #F9F3D7",
";X c #D4D7E4",
":X c #D5D8E6",
">X c #DEE1E3",
",X c #DFE2EA",
"<X c #E3E4E4",
"1X c #E5E8E6",
"2X c #EAE9E5",
"3X c #E3E6EA",
"4X c #E6E9ED",
"5X c #EBECEB",
"6X c #EEF0EF",
"7X c #F1F1EE",
"8X c #F8F7EF",
"9X c #F8F8ED",
"0X c #E1E5F2",
"qX c #E5EAF3",
"wX c #EBEDF1",
"eX c #E3ECFB",
"rX c #E9EEF9",
"tX c #EEF0F3",
"yX c #EDF2FA",
"uX c #F4F4F4",
"iX c #F8F7F7",
"pX c #F7F9F5",
"aX c #F9F9F6",
"sX c #F2F5FD",
"dX c #F7F9FD",
"fX c #FBFCFC",
"gX c None",
/* pixels */
"gXgXgXgXgXgXgXgXgXgXgXgXz b ~ ^ ^ ^ ^ ~ gXgXgXgXgXgXgXgXgXgXgXgX",
"gXgXgXgXgXgXgXgXgXl l 7 w r I R ! $.&.%.X.] _ gXgXgXgXgXgXgXgXgX",
"gXgXgXgXgXgXgXl w 4 # X X & p h 6.) } @.#...} ] w.gXgXgXgXgXgXgX",
"gXgXgXgXgXgXz x 0 ; = =.A.[.|..X X|.E.F.h.[ E Q ] w.gXgXgXgXgXgX",
"gXgXgXgXgXK L S w 3.{.qXyXtX6X5X1X1X3X,X;X'.k.W E U a.gXgXgXgXgX",
"gXgXgXgXK  .T / W.rXuX7X5X5X2XqX4X<X*X@X@X<X;XI.) E U a.gXgXgXgX",
"gXgXgXK %.@.8.|.sXuX6X6X6X6X=X!./.<X@X@XXXXX*X,X'.6.E W b.gXgXgX",
"gXgXw O.$.9..XfXuXuXiX7X6XyX(.t _ ,X0X>XXXXX>X<X4X].) E X.Z.gXgX",
"gXgXK .. .oXdXpXpXiXz.i N N c ' ` t.D.}.,X@X<X<X<XqXU.} ! r.gXgX",
"gXe H F l.sXfXpXiXpXs     X 5 U o.t ; o S.3X<X<X1X2X0Xk.@.+.f.gX",
"gXe S ~ *XfXfXfXfXfX;.. X # 8 ' o.n 4 . . 2.4X<X2X4X6X{.{ $.r.gX",
"gX8 1 j.dXfXfXfXfXfX;.. X # 5 P | t & X .   G.rX2X5X5X0Xh.#.g.gX",
"w , : R.fXfXfXfXfXfX:.. O X t.(.K.u.3 . . . o &XtX5X5XyXY.T %.a.",
"7 # & OXfXiXiXfXfXfX:.  X   c.yX3X>Xl.. . X . B.sX7X6XiX}.J ! 0.",
"7 . u 2XiXiXiXpXiXfXC.k B j P.yX+X3X5X-.. .   -.yX7XuXuX<Xf I ] ",
"7 . a wXiXiXuXsXpXiXpX8X8X8XfX7X3X6XsXm.. X X k 7XuX7XuXqXg q ^ ",
"6 . a wXuXuXuXuXuX7XiXyXsXyXwX<XuXaXfXM.  X . i pXiXpXiX6Xd 0 b ",
"j . u 3XuX6X6X6X6XyXV.B :.A !.3X5XpXfXA   X . g fXiXiXfX5Xy ; z ",
"V . O OXtX6X6X5XtX6X:.  . . m.eXwXsXH.X . X . V.fXfXfXfX&Xo X l ",
"7.X . T.yX5X5X5X5X5X:.. X . u.`.).i.; X X . + -XfXfXfXfXT.X O l ",
"gX6 . 1.yX2X5X4X<X5X-.. # # 5 P Y t 3 . . . J.fXfXfXfXfXj.; 4 gX",
"gXV . @ +X2X5X<X<X1XA X X # 8 ' o.n 3 . . M.fXiXfXfXfX2Xz 0 w gX",
"gXs.O . 4.eX<X<X<X3XN   . . < U o.t > k _.dXuXiXpXaXfXG.q r z gX",
"gXgXV . O oX4X*X<X>Xn.A ,.,.y.' q.C._.7XsXuXuXpXpXfX$XH H x gXgX",
"gXgXv.6   M <X<X*X@X>X>X>X0X#XY p.qXyX6X7XuXuXuXfX5Xe.! L e gXgX",
"gXgXgX7.X   -.<X,XXXXXXX>X>X*X`.$X5X5X6X7X7X7XsX5Xd.#.%.G gXgXgX",
"gXgXgXgXV .   M oX0XXXXX*X<X<X4X4X5X2X5X6X6XsX&X0.! &.L gXgXgXgX",
"gXgXgXgXgXv X   O N.*X0X,X3X<X<X<X5XwXyXsX2XH.G I } G gXgXgXgXgX",
"gXgXgXgXgXgXZ O .   @ 5.^.=X1XqXwX5X=X^.c.l 1 t G e gXgXgXgXgXgX",
"gXgXgXgXgXgXgX7.7 O .     + M A A a + . X ; 5 9 9 gXgXgXgXgXgXgX",
"gXgXgXgXgXgXgXgXgXC 6 > X   X       . # $ % - gXgXgXgXgXgXgXgXgX",
"gXgXgXgXgXgXgXgXgXgXgXgXz 7 4 & 4 3 4 4 gXgXgXgXgXgXgXgXgXgXgXgX"
};
